<?xml version="1.0" standalone="no"?>
<!DOCTYPE svg PUBLIC "-//W3C//DTD SVG 20010904//EN"
 "http://www.w3.org/TR/2001/REC-SVG-20010904/DTD/svg10.dtd">
<svg version="1.0" xmlns="http://www.w3.org/2000/svg"
 width="512.000000pt" height="512.000000pt" viewBox="0 0 512.000000 512.000000"
 preserveAspectRatio="xMidYMid meet">

<g transform="translate(0.000000,512.000000) scale(0.100000,-0.100000)"
fill="#000000" stroke="none">
<path d="M2595 3794 c-225 -130 -425 -250 -443 -267 -18 -18 -45 -56 -59 -86
l-27 -54 3 -604 c1 -332 7 -617 11 -634 17 -59 61 -120 108 -150 25 -16 50
-29 54 -29 4 0 8 249 8 553 0 429 -3 556 -12 566 -17 16 -32 7 334 223 170
100 326 198 345 217 20 19 47 60 61 90 24 51 26 71 31 234 4 97 4 177 1 177
-3 0 -189 -106 -415 -236z"/>
<path d="M2553 3148 l-202 -121 44 -49 c57 -64 75 -119 75 -235 0 -51 2 -93 5
-93 17 0 181 118 209 152 53 61 64 111 72 301 4 92 5 167 3 166 -2 0 -95 -55
-206 -121z"/>
<path d="M1580 1583 c-68 -35 -94 -127 -53 -191 68 -108 243 -61 245 65 1 105
-101 173 -192 126z m108 -66 c8 -6 12 -27 10 -56 -2 -38 -8 -48 -30 -61 -25
-13 -31 -13 -55 0 -25 14 -28 22 -28 65 0 43 3 51 25 62 25 13 54 9 78 -10z"/>
<path d="M1900 1587 c-48 -17 -80 -67 -80 -127 0 -73 57 -130 130 -130 65 0
130 57 130 114 l0 31 -65 0 c-61 0 -65 -1 -65 -22 0 -19 6 -23 30 -23 32 0 42
-23 14 -34 -56 -22 -104 9 -104 67 0 47 17 67 55 67 18 0 37 -4 40 -10 8 -12
85 -13 85 -1 0 21 -44 61 -78 71 -45 12 -48 12 -92 -3z"/>
<path d="M2314 1582 c-118 -55 -74 -252 56 -252 48 0 97 25 115 59 l16 31 -38
0 c-21 0 -47 -7 -57 -15 -26 -20 -49 -19 -69 3 -20 22 -23 92 -5 110 17 17 64
15 82 -4 10 -9 29 -14 51 -12 33 3 34 4 22 27 -31 61 -106 84 -173 53z"/>
<path d="M2578 1585 c-30 -17 -44 -52 -34 -89 4 -17 22 -30 67 -50 45 -19 60
-30 57 -44 -3 -18 -48 -30 -48 -13 0 6 -18 11 -41 11 -33 0 -40 -3 -35 -16 3
-9 6 -17 6 -20 0 -11 64 -34 98 -34 54 0 92 31 92 74 0 38 -18 58 -77 81 -29
12 -43 23 -43 35 0 24 18 36 33 21 13 -13 87 -15 87 -3 0 5 -11 19 -24 31 -31
30 -100 37 -138 16z"/>
<path d="M1310 1460 l0 -130 80 0 c79 0 80 0 80 25 0 23 -4 25 -45 25 l-45 0
0 105 0 105 -35 0 -35 0 0 -130z"/>
<path d="M2120 1460 l0 -130 35 0 35 0 0 130 0 130 -35 0 -35 0 0 -130z"/>
<path d="M2800 1460 l0 -130 35 0 35 0 0 55 0 55 40 0 c36 0 40 3 40 25 0 23
-4 25 -40 25 -36 0 -40 3 -40 25 0 24 3 25 55 25 52 0 55 1 55 25 0 25 -1 25
-90 25 l-90 0 0 -130z"/>
<path d="M3020 1460 l0 -130 40 0 40 0 0 130 0 130 -40 0 -40 0 0 -130z"/>
<path d="M3150 1460 l0 -130 85 0 c84 0 85 0 85 25 0 23 -3 25 -50 25 -49 0
-50 1 -50 30 0 29 2 30 45 30 41 0 45 2 45 25 0 23 -4 25 -45 25 -41 0 -45 2
-45 25 0 23 3 25 50 25 47 0 50 2 50 25 0 25 -1 25 -85 25 l-85 0 0 -130z"/>
<path d="M3370 1460 l0 -130 80 0 c79 0 80 0 80 25 0 23 -4 25 -45 25 l-45 0
0 105 0 105 -35 0 -35 0 0 -130z"/>
<path d="M3570 1459 l0 -131 79 3 c61 3 86 9 108 25 78 58 74 177 -8 220 -17
8 -57 14 -104 14 l-75 0 0 -131z m152 54 c11 -10 18 -30 18 -54 0 -44 -27 -69
-72 -69 -28 0 -28 0 -28 70 l0 70 32 0 c17 0 40 -7 50 -17z"/>
</g>
</svg>
