<svg version="1.1" id="Layer_1" xmlns="http://www.w3.org/2000/svg" xmlns:xlink="http://www.w3.org/1999/xlink" x="0px" y="0px"
	 width="100%" viewBox="0 0 512 512" enable-background="new 0 0 512 512" xml:space="preserve">
<path fill="#000000" opacity="1.000000" stroke="none" 
	d="
M339.000000,513.000000 
	C226.027451,513.000000 113.554893,513.000000 1.041169,513.000000 
	C1.041169,342.402435 1.041169,171.804840 1.041169,1.103623 
	C171.555893,1.103623 342.111877,1.103623 512.833923,1.103623 
	C512.833923,171.666534 512.833923,342.333252 512.833923,513.000000 
	C455.138153,513.000000 397.319061,513.000000 339.000000,513.000000 
M250.462128,279.046143 
	C250.274948,279.336487 250.087769,279.626862 249.512985,279.964417 
	C249.512985,279.964417 249.124176,279.928467 249.026932,278.999359 
	C249.050278,269.046753 249.073608,259.094177 249.731033,248.833862 
	C254.821777,245.515457 259.912506,242.197052 265.530853,238.914429 
	C265.639557,238.614365 265.748260,238.314301 265.995697,237.536331 
	C265.995697,237.536331 266.102142,237.050201 266.804443,236.996521 
	C269.864777,232.907303 274.942200,229.118591 275.604584,224.672165 
	C277.537201,211.698776 277.706268,198.462692 278.566711,185.329590 
	C278.105072,185.009705 277.643463,184.689835 277.181824,184.369949 
	C270.401276,188.546341 263.620697,192.722748 256.100891,196.972733 
	C255.313904,197.628616 254.602081,198.414764 253.727768,198.919342 
	C247.801422,202.339600 241.840775,205.700394 235.439545,209.004959 
	C235.439545,209.004959 234.999619,209.136230 234.365082,208.843079 
	C232.597092,207.854919 230.829117,206.866745 228.839462,205.298798 
	C227.929932,204.466492 227.020386,203.634186 226.416962,202.214798 
	C228.974823,200.534561 231.532684,198.854340 234.803619,197.045578 
	C239.865479,193.986130 244.927322,190.926682 250.688370,187.789734 
	C255.129074,185.153870 259.569763,182.518021 264.545227,179.916656 
	C264.728119,179.623672 264.911011,179.330688 265.068390,179.095139 
	C265.068390,179.095139 265.131134,179.098511 265.841309,179.045792 
	C269.595337,176.748306 273.349396,174.450821 277.735779,171.839172 
	C281.162384,169.847565 284.588989,167.855957 288.602325,165.876007 
	C289.100128,165.289154 289.597961,164.702301 290.074646,164.051468 
	C290.074646,164.051468 290.028870,164.100952 290.569885,163.961929 
	C290.749329,163.650223 290.928802,163.338531 291.058228,163.077484 
	C291.058228,163.077484 291.127716,163.095016 291.832489,163.009537 
	C298.157135,157.864822 302.088379,150.855087 302.747406,143.157639 
	C303.728668,131.696457 303.001801,120.089050 303.001801,107.642868 
	C295.582214,112.066101 288.802948,116.107620 281.316193,120.238075 
	C277.174713,122.781059 273.033203,125.324043 268.175659,127.979042 
	C264.117615,130.370453 260.059540,132.761871 255.308868,135.238831 
	C249.842346,138.458603 244.375839,141.678375 238.948303,144.955750 
	C238.948303,144.955750 238.979294,144.893494 238.447433,145.034637 
	C238.250595,145.331177 238.053757,145.627716 237.143524,146.000610 
	C232.711884,148.651932 228.280243,151.303238 223.216904,154.271225 
	C218.290833,156.079514 214.279999,158.971497 211.871460,163.858475 
	C211.871460,163.858475 211.897232,163.914978 211.319336,164.163986 
	C211.165497,164.761963 211.011658,165.359940 210.245300,166.336502 
	C209.110168,170.890244 207.975037,175.443985 206.104965,180.447678 
	C206.070969,187.941650 205.954880,195.436600 206.043060,202.929138 
	C206.078690,205.957504 206.560654,208.980591 206.978531,212.933517 
	C206.983063,239.393875 206.816299,265.856506 207.165741,292.312317 
	C207.222015,296.572662 209.579117,300.802612 210.970367,305.745667 
	C212.274307,307.511108 213.578247,309.276550 215.189728,311.651245 
	C217.134232,313.050262 219.078720,314.449310 221.645538,316.150299 
	C223.058075,316.784027 224.470596,317.417786 226.207428,318.681213 
	C228.470947,319.739807 230.734451,320.798431 233.600388,322.109314 
	C234.364624,322.425415 235.128876,322.741486 236.191467,323.680328 
	C237.771103,324.486206 239.350723,325.292114 241.251160,326.731323 
	C243.810913,327.761261 246.370667,328.791199 249.646606,329.803162 
	C254.430573,326.819611 259.214539,323.836060 264.716766,320.987213 
	C268.479004,318.602112 272.241211,316.216980 276.710297,313.755585 
	C280.477783,311.449951 284.245270,309.144318 288.694122,306.790070 
	C292.408142,302.515686 296.122162,298.241333 299.992249,293.517853 
	C299.992249,293.517853 300.112946,293.057922 300.766846,292.725830 
	C301.218628,290.830750 301.670410,288.935699 302.848358,286.564362 
	C302.848358,274.433105 302.848358,262.301849 302.848358,248.780136 
	C297.897125,251.895615 293.912109,254.403137 289.197968,256.989380 
	C286.127808,258.713318 283.057648,260.437256 279.465240,262.088837 
	C279.280396,262.374207 279.095581,262.659576 278.978241,262.962250 
	C278.978241,262.962250 278.914246,262.927612 278.259613,263.205109 
	C274.136139,265.786011 270.012695,268.366913 265.228577,271.246918 
	C261.126373,273.461121 257.024139,275.675354 252.942612,277.957886 
	C252.942612,277.957886 252.996231,277.911285 252.363068,277.981537 
	C251.881561,278.293671 251.400055,278.605835 250.966476,278.969360 
	C250.966476,278.969360 250.978638,278.900146 250.462128,279.046143 
M220.125626,352.025635 
	C217.721268,352.074921 215.316895,352.124207 212.147568,352.530945 
	C212.103821,358.983551 211.962509,365.437653 212.059692,371.888153 
	C212.104630,374.871307 212.614868,377.847504 213.805359,380.973938 
	C216.207565,380.927551 218.609787,380.881165 221.825867,380.545288 
	C221.884094,372.389954 221.986816,364.234406 221.955215,356.079437 
	C221.950165,354.773956 221.343994,353.470825 220.125626,352.025635 
M303.855499,380.974457 
	C306.255310,380.926086 308.655121,380.877716 311.844513,380.503204 
	C311.892761,373.036743 312.007538,365.569763 311.944519,358.104218 
	C311.927795,356.124207 311.364319,354.148804 310.162628,352.026794 
	C307.763428,352.073914 305.364258,352.121002 302.163605,352.476562 
	C302.110352,360.287201 302.001221,368.098175 302.049042,375.908203 
	C302.059082,377.551361 302.645508,379.191010 303.855499,380.974457 
M131.199951,352.456787 
	C131.138168,360.947052 131.043625,369.437378 131.059784,377.927490 
	C131.061630,378.892792 131.685196,379.856903 132.943130,380.972565 
	C138.200882,380.972565 143.458618,380.972565 148.425278,380.972565 
	C151.182922,372.949799 145.276245,374.155853 141.000107,373.709259 
	C141.000107,367.920837 140.779633,362.464233 141.073685,357.035522 
	C141.287903,353.080750 139.923340,351.451752 135.979584,351.982971 
	C134.674713,352.158722 133.340942,352.119965 131.199951,352.456787 
M338.917786,380.973419 
	C344.181488,380.973419 349.445190,380.973419 354.424835,380.973419 
	C357.186493,372.954071 351.273529,374.156982 347.006744,373.704834 
	C347.006744,367.909119 346.780823,362.445801 347.081726,357.011658 
	C347.302917,353.017273 345.871277,351.459778 341.957367,351.983521 
	C340.650940,352.158386 339.315979,352.120117 337.188660,352.480286 
	C337.131531,360.288544 337.017792,368.097168 337.063141,375.904816 
	C337.072662,377.545410 337.666840,379.182617 338.917786,380.973419 
M279.192627,352.436890 
	C279.129456,361.123688 279.040009,369.810547 279.047943,378.497284 
	C279.048645,379.277008 279.679535,380.056183 280.920776,380.977325 
	C283.520264,380.977325 286.119751,380.977325 289.154633,380.977325 
	C289.154633,377.362152 289.154633,374.289032 289.154633,371.237701 
	C298.748749,371.048096 297.504150,369.545166 296.289154,364.351776 
	C294.032990,362.840210 289.118408,366.335999 288.966827,359.920227 
	C292.879028,359.920227 296.294006,359.920227 299.681213,359.920227 
	C299.681213,357.056183 299.681213,354.670685 299.681213,352.164948 
	C292.916260,352.164948 286.467041,352.164948 279.192627,352.436890 
M314.208862,352.417450 
	C314.142059,361.282745 314.054657,370.148010 314.053680,379.013306 
	C314.053619,379.621002 314.700592,380.228790 315.968079,380.978333 
	C321.904449,380.978333 327.840790,380.978333 333.637482,380.978333 
	C333.637482,378.308777 333.637482,376.250336 333.637482,373.885986 
	C330.327515,373.885986 327.376740,373.885986 323.862701,373.885986 
	C324.569305,366.980743 330.510620,371.931122 332.662994,369.319855 
	C332.662994,367.339752 332.662994,365.284088 332.662994,363.162140 
	C331.685486,363.094818 331.011871,363.142944 330.388580,362.988220 
	C328.276459,362.463837 326.182159,361.867706 324.081055,361.298950 
	C326.152100,360.865021 328.216797,360.115631 330.295685,360.073914 
	C333.144897,360.016815 334.020477,358.818329 334.057220,356.112732 
	C334.097382,353.156555 333.104828,351.841980 330.015442,351.963959 
	C325.030579,352.160767 320.035919,352.109863 314.208862,352.417450 
M253.012222,371.701233 
	C253.794998,377.407104 257.276001,380.547638 262.678528,381.846649 
	C267.863373,383.093262 274.564514,380.313019 276.008270,376.329681 
	C278.130280,370.475128 276.685120,367.492706 270.046997,363.984131 
	C269.251526,363.563690 268.491943,363.075439 266.659882,361.997284 
	C269.111328,361.997284 270.370605,362.029968 271.627502,361.988647 
	C273.049683,361.941895 274.469696,361.828705 275.853210,361.746613 
	C275.960358,355.713196 273.843323,352.958252 268.709045,352.003448 
	C261.310089,350.627502 254.906281,353.272278 253.237274,358.393372 
	C251.786194,362.845856 255.035431,367.319458 262.992310,371.053192 
	C259.076385,371.053192 256.003693,371.053192 252.741592,370.266998 
	C248.695419,368.326111 244.902588,368.122009 240.905319,370.840942 
	C239.650772,371.694244 235.750092,371.224640 235.652603,370.785339 
	C235.113403,368.355591 235.001816,365.657257 235.586975,363.256500 
	C235.764771,362.527008 238.698120,361.945679 240.238464,362.175171 
	C244.057877,362.744232 247.801712,363.820496 251.575897,364.692993 
	C251.898315,364.151855 252.220749,363.610718 252.543167,363.069580 
	C251.601669,361.103485 251.006058,358.850922 249.657120,357.222290 
	C244.572906,351.083984 237.196976,350.744263 229.476776,354.245178 
	C224.821625,356.356171 222.697159,365.287720 224.468872,372.043854 
	C226.226791,378.747467 235.075958,382.699493 241.095016,381.619293 
	C247.609177,380.450287 250.584579,376.169769 253.012222,371.701233 
M358.909882,380.972015 
	C362.896423,380.986176 366.882996,381.012085 370.869537,381.011810 
	C376.902405,381.011414 382.516693,376.750031 383.916351,371.129639 
	C385.497375,364.781067 382.464020,357.501251 377.194092,354.614105 
	C371.085388,351.267426 364.522400,351.912781 357.183655,352.490112 
	C357.128967,360.292847 357.018250,368.095947 357.064880,375.898071 
	C357.074707,377.540222 357.662170,379.178925 358.909882,380.972015 
M192.746597,371.158325 
	C192.500824,369.912811 192.068207,368.671356 192.040848,367.421051 
	C191.904007,361.167480 193.333908,360.586029 199.221909,362.453156 
	C202.396271,363.459717 206.152222,362.632202 209.933807,362.632202 
	C208.135651,357.198914 205.756104,353.406158 200.433899,352.896484 
	C197.798828,352.644196 195.103851,353.091980 192.447647,352.969757 
	C187.541351,352.743958 184.654602,355.079468 182.825119,359.505920 
	C179.627167,367.243378 181.974686,376.245911 188.019180,379.623291 
	C196.420624,384.317596 205.898285,381.272339 208.929123,374.309540 
	C210.066376,371.696899 209.859787,368.245850 209.345703,365.339844 
	C209.211365,364.580414 205.643936,364.193726 203.624680,364.056885 
	C200.527023,363.846985 197.404663,364.001740 194.079147,364.001740 
	C194.079147,366.657684 194.079147,368.789246 193.706558,371.307800 
	C193.584824,371.439087 193.463089,371.570404 192.746597,371.158325 
M165.417404,352.002258 
	C158.656845,351.989380 152.964706,355.234741 150.992462,360.226532 
	C148.559906,366.383484 149.810883,373.328949 154.069992,377.313110 
	C159.471313,382.365784 166.385193,383.201477 172.920227,379.591675 
	C178.103271,376.728668 181.451126,369.695221 179.854950,363.904083 
	C178.045868,357.340607 173.598541,352.115662 165.417404,352.002258 
z"/>
<path fill="#B225B5" opacity="1.000000" stroke="none" 
	d="
M265.003235,238.878662 
	C259.912506,242.197052 254.821777,245.515457 249.182465,248.820129 
	C248.465424,248.717407 248.296936,248.628448 248.204361,248.105225 
	C248.281464,244.549881 248.263947,241.428650 248.287766,238.307739 
	C248.336960,231.859802 248.076324,225.487549 244.045288,219.623474 
	C242.359009,217.509506 240.736053,215.728638 239.013428,213.626312 
	C237.682343,212.491806 236.450912,211.678741 235.197449,210.694626 
	C235.175415,210.523575 235.071732,210.194611 235.285660,210.071762 
	C235.780365,209.727112 235.910904,209.437622 235.891220,209.080414 
	C241.840775,205.700394 247.801422,202.339600 253.727768,198.919342 
	C254.602081,198.414764 255.313904,197.628616 256.822754,197.074677 
	C258.338043,198.531082 259.588837,199.805466 259.842621,201.254471 
	C260.750763,206.438965 261.149719,211.712784 262.061676,216.896454 
	C263.248505,223.642517 264.741119,230.334778 266.102142,237.050201 
	C266.102142,237.050201 265.995697,237.536331 265.765381,237.900177 
	C265.330261,238.445099 265.152985,238.649979 265.003235,238.878662 
z"/>
<path fill="#AB1FB9" opacity="1.000000" stroke="none" 
	d="
M223.848602,153.954559 
	C228.280243,151.303238 232.711884,148.651932 237.713470,145.822388 
	C238.515366,145.393921 238.747330,145.143707 238.979279,144.893494 
	C238.979294,144.893494 238.948303,144.955750 239.320343,144.963013 
	C241.024368,146.558472 243.070221,147.956970 243.552277,149.770996 
	C244.906769,154.868378 245.708878,160.121979 246.559570,165.341553 
	C247.781250,172.837326 248.853256,180.357468 249.989166,187.867218 
	C244.927322,190.926682 239.865479,193.986130 234.564087,196.734772 
	C234.517761,195.456345 235.021500,194.432220 234.857346,193.529587 
	C232.613083,181.188522 230.365173,168.845810 227.810867,156.567429 
	C227.582413,155.469223 225.219986,154.814987 223.848602,153.954559 
z"/>
<path fill="#DB339A" opacity="1.000000" stroke="none" 
	d="
M282.023682,120.149139 
	C288.802948,116.107620 295.582214,112.066101 303.001801,107.642868 
	C303.001801,120.089050 303.728668,131.696457 302.747406,143.157639 
	C302.088379,150.855087 298.157135,157.864822 291.448395,162.627808 
	C289.347748,152.791672 287.773621,143.308228 285.854095,133.895233 
	C284.906036,129.246155 283.320679,124.727051 282.023682,120.149139 
z"/>
<path fill="#B825B1" opacity="1.000000" stroke="none" 
	d="
M250.338776,187.828476 
	C248.853256,180.357468 247.781250,172.837326 246.559570,165.341553 
	C245.708878,160.121979 244.906769,154.868378 243.552277,149.770996 
	C243.070221,147.956970 241.024368,146.558472 239.300842,144.934235 
	C244.375839,141.678375 249.842346,138.458603 255.736710,135.563446 
	C259.153412,150.291534 262.142273,164.695023 265.131165,179.098511 
	C265.131134,179.098511 265.068390,179.095139 264.884949,179.186920 
	C264.440491,179.444702 264.210144,179.645844 264.010468,179.882156 
	C259.569763,182.518021 255.129074,185.153870 250.338776,187.828476 
z"/>
<path fill="#21BFFE" opacity="1.000000" stroke="none" 
	d="
M244.108612,219.956589 
	C248.076324,225.487549 248.336960,231.859802 248.287766,238.307739 
	C248.263947,241.428650 248.281464,244.549881 248.176544,248.606445 
	C248.046234,255.958725 247.901520,262.377991 248.035980,268.791443 
	C248.120941,272.845276 248.622635,276.890442 248.941376,281.411926 
	C248.940353,297.863281 248.935394,313.842224 248.930420,329.821136 
	C246.370667,328.791199 243.810913,327.761261 241.187485,326.001587 
	C241.415817,322.642151 241.956680,320.012909 241.961838,317.382660 
	C242.021469,286.928955 241.959961,256.474976 242.090714,226.021744 
	C242.099411,223.997177 243.405807,221.978180 244.108612,219.956589 
z"/>
<path fill="#C029AC" opacity="1.000000" stroke="none" 
	d="
M266.453308,237.023361 
	C264.741119,230.334778 263.248505,223.642517 262.061676,216.896454 
	C261.149719,211.712784 260.750763,206.438965 259.842621,201.254471 
	C259.588837,199.805466 258.338043,198.531082 257.192383,197.037872 
	C263.620697,192.722748 270.401276,188.546341 277.181824,184.369949 
	C277.643463,184.689835 278.105072,185.009705 278.566711,185.329590 
	C277.706268,198.462692 277.537201,211.698776 275.604584,224.672165 
	C274.942200,229.118591 269.864777,232.907303 266.453308,237.023361 
z"/>
<path fill="#288EFE" opacity="1.000000" stroke="none" 
	d="
M225.883133,318.051514 
	C224.470596,317.417786 223.058075,316.784027 221.595520,315.725708 
	C222.030518,313.107971 222.931870,310.916016 222.938034,308.721527 
	C223.028915,276.426788 222.975266,244.131622 223.043243,211.836761 
	C223.049484,208.873642 223.651886,205.911774 224.333008,202.920120 
	C225.162659,202.861237 225.636765,202.831558 226.110855,202.801880 
	C227.020386,203.634186 227.929932,204.466492 228.935654,206.064178 
	C229.021286,208.326843 229.001556,209.824127 229.001480,211.321426 
	C228.999603,244.596207 229.015594,277.871033 228.970062,311.145752 
	C228.966400,313.813446 229.895950,317.091766 225.883133,318.051514 
z"/>
<path fill="#CE2EA2" opacity="1.000000" stroke="none" 
	d="
M281.669922,120.193604 
	C283.320679,124.727051 284.906036,129.246155 285.854095,133.895233 
	C287.773621,143.308228 289.347748,152.791672 291.096008,162.670532 
	C291.127716,163.095016 291.058228,163.077484 290.884888,163.212402 
	C290.483948,163.598526 290.256409,163.849731 290.028870,164.100952 
	C290.028870,164.100952 290.074646,164.051468 289.794373,164.134155 
	C289.014618,164.766006 288.515106,165.315170 288.015594,165.864349 
	C284.588989,167.855957 281.162384,169.847565 277.393188,171.544907 
	C274.330994,156.789429 271.611359,142.328232 268.891693,127.867020 
	C273.033203,125.324043 277.174713,122.781059 281.669922,120.193604 
z"/>
<path fill="#2E63FD" opacity="1.000000" stroke="none" 
	d="
M210.872620,305.046631 
	C209.579117,300.802612 207.222015,296.572662 207.165741,292.312317 
	C206.816299,265.856506 206.983063,239.393875 206.971466,212.004822 
	C207.027771,205.001358 207.091141,198.926605 207.484863,192.944397 
	C210.314606,194.634369 212.813980,196.231796 214.938812,198.001755 
	C214.042511,200.315643 213.073120,202.455582 213.066269,204.598602 
	C212.967728,235.458664 213.050095,266.319397 212.906342,297.179108 
	C212.894119,299.804718 211.581253,302.424255 210.872620,305.046631 
z"/>
<path fill="#1395EF" opacity="1.000000" stroke="none" 
	d="
M194.079147,370.920837 
	C194.079147,368.789246 194.079147,366.657684 194.079147,364.001740 
	C197.404663,364.001740 200.527023,363.846985 203.624680,364.056885 
	C205.643936,364.193726 209.211365,364.580414 209.345703,365.339844 
	C209.859787,368.245850 210.066376,371.696899 208.929123,374.309540 
	C205.898285,381.272339 196.420624,384.317596 188.019180,379.623291 
	C181.974686,376.245911 179.627167,367.243378 182.825119,359.505920 
	C184.654602,355.079468 187.541351,352.743958 192.447647,352.969757 
	C195.103851,353.091980 197.798828,352.644196 200.433899,352.896484 
	C205.756104,353.406158 208.135651,357.198914 209.933807,362.632202 
	C206.152222,362.632202 202.396271,363.459717 199.221909,362.453156 
	C193.333908,360.586029 191.904007,361.167480 192.040848,367.421051 
	C192.068207,368.671356 192.500824,369.912811 193.290466,371.695740 
	C195.666885,372.233124 197.499405,372.233124 199.331940,372.233124 
	C199.327240,371.795685 199.322540,371.358276 199.317856,370.920837 
	C197.571625,370.920837 195.825378,370.920837 194.079147,370.920837 
z"/>
<path fill="#C329A9" opacity="1.000000" stroke="none" 
	d="
M268.533691,127.923035 
	C271.611359,142.328232 274.330994,156.789429 277.077026,171.701981 
	C273.349396,174.450821 269.595337,176.748306 265.486237,179.072144 
	C262.142273,164.695023 259.153412,150.291534 256.083008,135.520676 
	C260.059540,132.761871 264.117615,130.370453 268.533691,127.923035 
z"/>
<path fill="#1496EF" opacity="1.000000" stroke="none" 
	d="
M165.852325,351.998566 
	C173.598541,352.115662 178.045868,357.340607 179.854950,363.904083 
	C181.451126,369.695221 178.103271,376.728668 172.920227,379.591675 
	C166.385193,383.201477 159.471313,382.365784 154.069992,377.313110 
	C149.810883,373.328949 148.559906,366.383484 150.992462,360.226532 
	C152.964706,355.234741 158.656845,351.989380 165.852325,351.998566 
M165.257034,371.991974 
	C168.621017,371.086884 170.424973,368.533020 169.534027,365.502625 
	C168.997513,363.677826 166.281067,362.493958 164.544235,361.022064 
	C163.037888,362.953186 160.835556,364.680603 160.195984,366.865448 
	C159.337463,369.798370 160.991806,371.967255 165.257034,371.991974 
z"/>
<path fill="#9F1AC2" opacity="1.000000" stroke="none" 
	d="
M226.263916,202.508331 
	C225.636765,202.831558 225.162659,202.861237 224.146881,202.724548 
	C223.040558,202.114792 222.475922,201.671371 221.929047,200.791565 
	C219.986115,189.267059 218.140625,178.155685 215.912903,167.121475 
	C215.646912,165.803955 213.299561,164.906662 211.916946,163.814575 
	C214.279999,158.971497 218.290833,156.079514 223.532745,154.112885 
	C225.219986,154.814987 227.582413,155.469223 227.810867,156.567429 
	C230.365173,168.845810 232.613083,181.188522 234.857346,193.529587 
	C235.021500,194.432220 234.517761,195.456345 234.207550,196.799042 
	C231.532684,198.854340 228.974823,200.534561 226.263916,202.508331 
z"/>
<path fill="#1395EF" opacity="1.000000" stroke="none" 
	d="
M357.983551,352.181549 
	C364.522400,351.912781 371.085388,351.267426 377.194092,354.614105 
	C382.464020,357.501251 385.497375,364.781067 383.916351,371.129639 
	C382.516693,376.750031 376.902405,381.011414 370.869537,381.011810 
	C366.882996,381.012085 362.896423,380.986176 358.446350,380.438477 
	C357.983063,370.663818 357.983307,361.422699 357.983551,352.181549 
M371.906799,362.463593 
	C370.467072,361.890594 369.027344,361.317566 367.190613,360.586548 
	C367.190613,364.981598 367.190613,368.684723 367.190613,372.429077 
	C373.977997,370.829681 375.134125,368.710876 371.906799,362.463593 
z"/>
<path fill="#25A6FE" opacity="1.000000" stroke="none" 
	d="
M276.003448,313.831848 
	C272.241211,316.216980 268.479004,318.602112 264.348572,320.519531 
	C261.592804,307.476715 259.314606,294.878601 256.687469,282.353729 
	C256.335602,280.676208 254.220505,279.368500 252.921936,277.889557 
	C257.024139,275.675354 261.126373,273.461121 265.861328,271.307495 
	C267.335724,273.646210 268.483276,275.861328 268.967438,278.213074 
	C271.407867,290.066406 273.675293,301.955383 276.003448,313.831848 
z"/>
<path fill="#297FFD" opacity="1.000000" stroke="none" 
	d="
M221.911301,201.227966 
	C222.475922,201.671371 223.040558,202.114792 223.791321,202.753754 
	C223.651886,205.911774 223.049484,208.873642 223.043243,211.836761 
	C222.975266,244.131622 223.028915,276.426788 222.938034,308.721527 
	C222.931870,310.916016 222.030518,313.107971 221.284363,315.574738 
	C219.078720,314.449310 217.134232,313.050262 215.413239,311.242035 
	C216.424454,308.506500 217.886124,306.183807 217.898727,303.853302 
	C218.086914,269.058960 218.083694,234.263580 218.403641,199.701096 
	C219.758194,200.365158 220.834747,200.796570 221.911301,201.227966 
z"/>
<path fill="#269DFE" opacity="1.000000" stroke="none" 
	d="
M226.045288,318.366364 
	C229.895950,317.091766 228.966400,313.813446 228.970062,311.145752 
	C229.015594,277.871033 228.999603,244.596207 229.001480,211.321426 
	C229.001556,209.824127 229.021286,208.326843 229.046478,206.354065 
	C230.829117,206.866745 232.597092,207.854919 234.695709,209.254578 
	C235.041473,209.842255 235.056610,210.018433 235.071732,210.194611 
	C235.071732,210.194611 235.175415,210.523575 234.940002,211.035812 
	C234.469528,213.665649 234.032806,215.782959 234.029709,217.900894 
	C233.985306,248.270294 234.038528,278.639893 233.954880,309.009094 
	C233.943085,313.292572 233.331787,317.574432 232.997986,321.857025 
	C230.734451,320.798431 228.470947,319.739807 226.045288,318.366364 
z"/>
<path fill="#24B2FE" opacity="1.000000" stroke="none" 
	d="
M276.356873,313.793701 
	C273.675293,301.955383 271.407867,290.066406 268.967438,278.213074 
	C268.483276,275.861328 267.335724,273.646210 266.191650,271.157959 
	C270.012695,268.366913 274.136139,265.786011 278.614380,263.480286 
	C279.657959,267.320038 280.291016,270.896484 281.045959,274.446991 
	C283.342987,285.249603 285.687042,296.042206 288.012756,306.838684 
	C284.245270,309.144318 280.477783,311.449951 276.356873,313.793701 
z"/>
<path fill="#1496EF" opacity="1.000000" stroke="none" 
	d="
M253.060410,370.923981 
	C250.584579,376.169769 247.609177,380.450287 241.095016,381.619293 
	C235.075958,382.699493 226.226791,378.747467 224.468872,372.043854 
	C222.697159,365.287720 224.821625,356.356171 229.476776,354.245178 
	C237.196976,350.744263 244.572906,351.083984 249.657120,357.222290 
	C251.006058,358.850922 251.601669,361.103485 252.543167,363.069580 
	C252.220749,363.610718 251.898315,364.151855 251.575897,364.692993 
	C247.801712,363.820496 244.057877,362.744232 240.238464,362.175171 
	C238.698120,361.945679 235.764771,362.527008 235.586975,363.256500 
	C235.001816,365.657257 235.113403,368.355591 235.652603,370.785339 
	C235.750092,371.224640 239.650772,371.694244 240.905319,370.840942 
	C244.902588,368.122009 248.695419,368.326111 252.869629,370.628784 
	C252.997665,370.990540 253.060410,370.923981 253.060410,370.923981 
z"/>
<path fill="#2C71FE" opacity="1.000000" stroke="none" 
	d="
M218.125626,199.468445 
	C218.083694,234.263580 218.086914,269.058960 217.898727,303.853302 
	C217.886124,306.183807 216.424454,308.506500 215.259460,310.937408 
	C213.578247,309.276550 212.274307,307.511108 210.921478,305.396149 
	C211.581253,302.424255 212.894119,299.804718 212.906342,297.179108 
	C213.050095,266.319397 212.967728,235.458664 213.066269,204.598602 
	C213.073120,202.455582 214.042511,200.315643 215.205200,198.072556 
	C216.605942,198.470047 217.365784,198.969254 218.125626,199.468445 
z"/>
<path fill="#1496EF" opacity="1.000000" stroke="none" 
	d="
M252.964340,371.021851 
	C256.003693,371.053192 259.076385,371.053192 262.992310,371.053192 
	C255.035431,367.319458 251.786194,362.845856 253.237274,358.393372 
	C254.906281,353.272278 261.310089,350.627502 268.709045,352.003448 
	C273.843323,352.958252 275.960358,355.713196 275.853210,361.746613 
	C274.469696,361.828705 273.049683,361.941895 271.627502,361.988647 
	C270.370605,362.029968 269.111328,361.997284 266.659882,361.997284 
	C268.491943,363.075439 269.251526,363.563690 270.046997,363.984131 
	C276.685120,367.492706 278.130280,370.475128 276.008270,376.329681 
	C274.564514,380.313019 267.863373,383.093262 262.678528,381.846649 
	C257.276001,380.547638 253.794998,377.407104 253.036316,371.312622 
	C253.060410,370.923981 252.997665,370.990540 252.964340,371.021851 
z"/>
<path fill="#269DFE" opacity="1.000000" stroke="none" 
	d="
M252.932281,277.923706 
	C254.220505,279.368500 256.335602,280.676208 256.687469,282.353729 
	C259.314606,294.878601 261.592804,307.476715 263.989441,320.452179 
	C259.214539,323.836060 254.430573,326.819611 249.288513,329.812134 
	C248.935394,313.842224 248.940353,297.863281 248.988220,281.159607 
	C249.062119,280.266083 249.093155,280.097290 249.124176,279.928467 
	C249.124176,279.928467 249.512985,279.964417 249.908661,279.798462 
	C250.558212,279.415161 250.782974,279.171051 250.978638,278.900146 
	C250.978638,278.900146 250.966476,278.969360 251.234161,278.897186 
	C251.999985,278.520447 252.498108,278.215881 252.996231,277.911285 
	C252.996231,277.911285 252.942612,277.957886 252.932281,277.923706 
z"/>
<path fill="#23BCFE" opacity="1.000000" stroke="none" 
	d="
M288.353455,306.814392 
	C285.687042,296.042206 283.342987,285.249603 281.045959,274.446991 
	C280.291016,270.896484 279.657959,267.320038 278.941711,263.341553 
	C278.914246,262.927612 278.978241,262.962250 279.143494,262.851044 
	C279.561615,262.578156 279.787872,262.385254 279.987518,262.161194 
	C283.057648,260.437256 286.127808,258.713318 289.580994,257.385498 
	C291.887390,268.781708 293.698212,279.804230 295.885010,290.751678 
	C296.141418,292.035278 298.468842,292.905243 299.836182,293.966980 
	C296.122162,298.241333 292.408142,302.515686 288.353455,306.814392 
z"/>
<path fill="#1094EF" opacity="1.000000" stroke="none" 
	d="
M315.045410,352.163574 
	C320.035919,352.109863 325.030579,352.160767 330.015442,351.963959 
	C333.104828,351.841980 334.097382,353.156555 334.057220,356.112732 
	C334.020477,358.818329 333.144897,360.016815 330.295685,360.073914 
	C328.216797,360.115631 326.152100,360.865021 324.081055,361.298950 
	C326.182159,361.867706 328.276459,362.463837 330.388580,362.988220 
	C331.011871,363.142944 331.685486,363.094818 332.662994,363.162140 
	C332.662994,365.284088 332.662994,367.339752 332.662994,369.319855 
	C330.510620,371.931122 324.569305,366.980743 323.862701,373.885986 
	C327.376740,373.885986 330.327515,373.885986 333.637482,373.885986 
	C333.637482,376.250336 333.637482,378.308777 333.637482,380.978333 
	C327.840790,380.978333 321.904449,380.978333 315.504303,380.449341 
	C315.042145,370.668091 315.043793,361.415833 315.045410,352.163574 
z"/>
<path fill="#24A9FE" opacity="1.000000" stroke="none" 
	d="
M233.299194,321.983154 
	C233.331787,317.574432 233.943085,313.292572 233.954880,309.009094 
	C234.038528,278.639893 233.985306,248.270294 234.029709,217.900894 
	C234.032806,215.782959 234.469528,213.665649 234.962036,211.206863 
	C236.450912,211.678741 237.682343,212.491806 238.771500,213.968719 
	C238.419479,216.764893 238.029602,218.896988 238.026993,221.029556 
	C237.987778,253.011993 238.037918,284.994659 237.909164,316.976624 
	C237.901001,319.006287 236.595230,321.030701 235.893127,323.057556 
	C235.128876,322.741486 234.364624,322.425415 233.299194,321.983154 
z"/>
<path fill="#23B4FE" opacity="1.000000" stroke="none" 
	d="
M236.042297,323.368958 
	C236.595230,321.030701 237.901001,319.006287 237.909164,316.976624 
	C238.037918,284.994659 237.987778,253.011993 238.026993,221.029556 
	C238.029602,218.896988 238.419479,216.764893 238.871155,214.290161 
	C240.736053,215.728638 242.359009,217.509506 244.045288,219.623474 
	C243.405807,221.978180 242.099411,223.997177 242.090714,226.021744 
	C241.959961,256.474976 242.021469,286.928955 241.961838,317.382660 
	C241.956680,320.012909 241.415817,322.642151 241.027084,325.684937 
	C239.350723,325.292114 237.771103,324.486206 236.042297,323.368958 
z"/>
<path fill="#21C6FE" opacity="1.000000" stroke="none" 
	d="
M299.914215,293.742432 
	C298.468842,292.905243 296.141418,292.035278 295.885010,290.751678 
	C293.698212,279.804230 291.887390,268.781708 289.945557,257.346130 
	C293.912109,254.403137 297.897125,251.895615 302.848358,248.780136 
	C302.848358,262.301849 302.848358,274.433105 302.215240,287.041931 
	C301.092377,289.365662 300.602661,291.211792 300.112946,293.057922 
	C300.112946,293.057922 299.992249,293.517853 299.914215,293.742432 
z"/>
<path fill="#1094EF" opacity="1.000000" stroke="none" 
	d="
M280.017822,352.164948 
	C286.467041,352.164948 292.916260,352.164948 299.681213,352.164948 
	C299.681213,354.670685 299.681213,357.056183 299.681213,359.920227 
	C296.294006,359.920227 292.879028,359.920227 288.966827,359.920227 
	C289.118408,366.335999 294.032990,362.840210 296.289154,364.351776 
	C297.504150,369.545166 298.748749,371.048096 289.154633,371.237701 
	C289.154633,374.289032 289.154633,377.362152 289.154633,380.977325 
	C286.119751,380.977325 283.520264,380.977325 280.469086,380.448364 
	C280.017548,370.667938 280.017700,361.416443 280.017822,352.164948 
z"/>
<path fill="#9517C8" opacity="1.000000" stroke="none" 
	d="
M218.403641,199.701096 
	C217.365784,198.969254 216.605942,198.470047 215.579742,197.900040 
	C212.813980,196.231796 210.314606,194.634369 207.426147,192.496979 
	C206.971344,187.970596 206.905609,183.984161 206.839905,179.997726 
	C207.975037,175.443985 209.110168,170.890244 210.767242,165.944473 
	C211.491867,165.006622 211.694550,164.460800 211.897232,163.914978 
	C211.897232,163.914978 211.871460,163.858475 211.894196,163.836517 
	C213.299561,164.906662 215.646912,165.803955 215.912903,167.121475 
	C218.140625,178.155685 219.986115,189.267059 221.929047,200.791565 
	C220.834747,200.796570 219.758194,200.365158 218.403641,199.701096 
z"/>
<path fill="#1094EF" opacity="1.000000" stroke="none" 
	d="
M337.994080,352.179291 
	C339.315979,352.120117 340.650940,352.158386 341.957367,351.983521 
	C345.871277,351.459778 347.302917,353.017273 347.081726,357.011658 
	C346.780823,362.445801 347.006744,367.909119 347.006744,373.704834 
	C351.273529,374.156982 357.186493,372.954071 354.424835,380.973419 
	C349.445190,380.973419 344.181488,380.973419 338.453735,380.440125 
	C337.991150,370.664337 337.992615,361.421814 337.994080,352.179291 
z"/>
<path fill="#1094EF" opacity="1.000000" stroke="none" 
	d="
M132.020386,352.179260 
	C133.340942,352.119965 134.674713,352.158722 135.979584,351.982971 
	C139.923340,351.451752 141.287903,353.080750 141.073685,357.035522 
	C140.779633,362.464233 141.000107,367.920837 141.000107,373.709259 
	C145.276245,374.155853 151.182922,372.949799 148.425278,380.972565 
	C143.458618,380.972565 138.200882,380.972565 132.476334,380.439850 
	C132.013153,370.664520 132.016769,361.421875 132.020386,352.179260 
z"/>
<path fill="#1094EF" opacity="1.000000" stroke="none" 
	d="
M302.965027,352.168091 
	C305.364258,352.121002 307.763428,352.073914 310.602753,352.556854 
	C311.046906,362.334381 311.050903,371.581848 311.054932,380.829315 
	C308.655121,380.877716 306.255310,380.926086 303.414886,380.445374 
	C302.971191,370.666870 302.968109,361.417480 302.965027,352.168091 
z"/>
<path fill="#1094EF" opacity="1.000000" stroke="none" 
	d="
M221.011993,380.834747 
	C218.609787,380.881165 216.207565,380.927551 213.367706,380.442627 
	C212.924210,370.665405 212.918381,361.419434 212.912537,352.173492 
	C215.316895,352.124207 217.721268,352.074921 220.568146,352.554138 
	C221.011093,362.333344 221.011536,371.584045 221.011993,380.834747 
z"/>
<path fill="#21C6FE" opacity="1.000000" stroke="none" 
	d="
M249.075562,279.463928 
	C249.093155,280.097290 249.062119,280.266083 248.984253,280.687164 
	C248.622635,276.890442 248.120941,272.845276 248.035980,268.791443 
	C247.901520,262.377991 248.046234,255.958725 248.100647,249.040695 
	C248.296936,248.628448 248.465424,248.717407 248.865433,248.973984 
	C249.073608,259.094177 249.050278,269.046753 249.075562,279.463928 
z"/>
<path fill="#E6D0F6" opacity="1.000000" stroke="none" 
	d="
M206.472427,180.222702 
	C206.905609,183.984161 206.971344,187.970596 207.095795,192.404449 
	C207.091141,198.926605 207.027771,205.001358 206.901947,211.541107 
	C206.560654,208.980591 206.078690,205.957504 206.043060,202.929138 
	C205.954880,195.436600 206.070969,187.941650 206.472427,180.222702 
z"/>
<path fill="#4FB0F3" opacity="1.000000" stroke="none" 
	d="
M221.418930,380.690002 
	C221.011536,371.584045 221.011093,362.333344 221.013184,352.624634 
	C221.343994,353.470825 221.950165,354.773956 221.955215,356.079437 
	C221.986816,364.234406 221.884094,372.389954 221.418930,380.690002 
z"/>
<path fill="#269DFE" opacity="1.000000" stroke="none" 
	d="
M337.591370,352.329773 
	C337.992615,361.421814 337.991150,370.664337 337.990662,380.364136 
	C337.666840,379.182617 337.072662,377.545410 337.063141,375.904816 
	C337.017792,368.097168 337.131531,360.288544 337.591370,352.329773 
z"/>
<path fill="#4FB0F3" opacity="1.000000" stroke="none" 
	d="
M314.627136,352.290527 
	C315.043793,361.415833 315.042145,370.668091 315.043579,380.378418 
	C314.700592,380.228790 314.053619,379.621002 314.053680,379.013306 
	C314.054657,370.148010 314.142059,361.282745 314.627136,352.290527 
z"/>
<path fill="#4FB0F3" opacity="1.000000" stroke="none" 
	d="
M311.449707,380.666260 
	C311.050903,371.581848 311.046906,362.334381 311.047394,352.629089 
	C311.364319,354.148804 311.927795,356.124207 311.944519,358.104218 
	C312.007538,365.569763 311.892761,373.036743 311.449707,380.666260 
z"/>
<path fill="#4FB0F3" opacity="1.000000" stroke="none" 
	d="
M302.564331,352.322327 
	C302.968109,361.417480 302.971191,370.666870 302.970276,380.374268 
	C302.645508,379.191010 302.059082,377.551361 302.049042,375.908203 
	C302.001221,368.098175 302.110352,360.287201 302.564331,352.322327 
z"/>
<path fill="#4FB0F3" opacity="1.000000" stroke="none" 
	d="
M279.605225,352.300903 
	C280.017700,361.416443 280.017548,370.667938 280.017578,380.377502 
	C279.679535,380.056183 279.048645,379.277008 279.047943,378.497284 
	C279.040009,369.810547 279.129456,361.123688 279.605225,352.300903 
z"/>
<path fill="#4FB0F3" opacity="1.000000" stroke="none" 
	d="
M212.530060,352.352234 
	C212.918381,361.419434 212.924210,370.665405 212.922089,380.369080 
	C212.614868,377.847504 212.104630,374.871307 212.059692,371.888153 
	C211.962509,365.437653 212.103821,358.983551 212.530060,352.352234 
z"/>
<path fill="#25A6FE" opacity="1.000000" stroke="none" 
	d="
M131.610168,352.318024 
	C132.016769,361.421875 132.013153,370.664520 132.014999,380.364349 
	C131.685196,379.856903 131.061630,378.892792 131.059784,377.927490 
	C131.043625,369.437378 131.138168,360.947052 131.610168,352.318024 
z"/>
<path fill="#269DFE" opacity="1.000000" stroke="none" 
	d="
M357.583618,352.335815 
	C357.983307,361.422699 357.983063,370.663818 357.983154,380.362091 
	C357.662170,379.178925 357.074707,377.540222 357.064880,375.898071 
	C357.018250,368.095947 357.128967,360.292847 357.583618,352.335815 
z"/>
<path fill="#23BCFE" opacity="1.000000" stroke="none" 
	d="
M300.439880,292.891876 
	C300.602661,291.211792 301.092377,289.365662 301.852173,287.280090 
	C301.670410,288.935699 301.218628,290.830750 300.439880,292.891876 
z"/>
<path fill="#DB339A" opacity="1.000000" stroke="none" 
	d="
M288.308960,165.870178 
	C288.515106,165.315170 289.014618,164.766006 289.804932,164.166138 
	C289.597961,164.702301 289.100128,165.289154 288.308960,165.870178 
z"/>
<path fill="#25A6FE" opacity="1.000000" stroke="none" 
	d="
M252.679657,277.946411 
	C252.498108,278.215881 251.999985,278.520447 251.210205,278.871490 
	C251.400055,278.605835 251.881561,278.293671 252.679657,277.946411 
z"/>
<path fill="#9F1AC2" opacity="1.000000" stroke="none" 
	d="
M211.608276,164.039490 
	C211.694550,164.460800 211.491867,165.006622 211.073486,165.755188 
	C211.011658,165.359940 211.165497,164.761963 211.608276,164.039490 
z"/>
<path fill="#25A6FE" opacity="1.000000" stroke="none" 
	d="
M250.720383,278.973145 
	C250.782974,279.171051 250.558212,279.415161 250.102448,279.774841 
	C250.087769,279.626862 250.274948,279.336487 250.720383,278.973145 
z"/>
<path fill="#24B2FE" opacity="1.000000" stroke="none" 
	d="
M279.726379,262.125000 
	C279.787872,262.385254 279.561615,262.578156 279.109741,262.842407 
	C279.095581,262.659576 279.280396,262.374207 279.726379,262.125000 
z"/>
<path fill="#C029AC" opacity="1.000000" stroke="none" 
	d="
M265.267029,238.896545 
	C265.152985,238.649979 265.330261,238.445099 265.695984,238.139130 
	C265.748260,238.314301 265.639557,238.614365 265.267029,238.896545 
z"/>
<path fill="#24A9FE" opacity="1.000000" stroke="none" 
	d="
M235.285660,210.071762 
	C235.056610,210.018433 235.041473,209.842255 235.012985,209.401154 
	C234.999619,209.136230 235.439545,209.004959 235.665375,209.042694 
	C235.910904,209.437622 235.780365,209.727112 235.285660,210.071762 
z"/>
<path fill="#DB339A" opacity="1.000000" stroke="none" 
	d="
M290.299377,164.031433 
	C290.256409,163.849731 290.483948,163.598526 290.909882,163.187073 
	C290.928802,163.338531 290.749329,163.650223 290.299377,164.031433 
z"/>
<path fill="#C329A9" opacity="1.000000" stroke="none" 
	d="
M264.277832,179.899414 
	C264.210144,179.645844 264.440491,179.444702 264.897705,179.158203 
	C264.911011,179.330688 264.728119,179.623672 264.277832,179.899414 
z"/>
<path fill="#B825B1" opacity="1.000000" stroke="none" 
	d="
M238.713348,144.964050 
	C238.747330,145.143707 238.515366,145.393921 238.070175,145.784210 
	C238.053757,145.627716 238.250595,145.331177 238.713348,144.964050 
z"/>
<path fill="#000000" opacity="1.000000" stroke="none" 
	d="
M193.892853,371.114319 
	C195.825378,370.920837 197.571625,370.920837 199.317856,370.920837 
	C199.322540,371.358276 199.327240,371.795685 199.331940,372.233124 
	C197.499405,372.233124 195.666885,372.233124 193.587845,371.967438 
	C193.463089,371.570404 193.584824,371.439087 193.892853,371.114319 
z"/>
<path fill="#000000" opacity="1.000000" stroke="none" 
	d="
M164.856735,371.991089 
	C160.991806,371.967255 159.337463,369.798370 160.195984,366.865448 
	C160.835556,364.680603 163.037888,362.953186 164.544250,361.022064 
	C166.281067,362.493958 168.997513,363.677826 169.534027,365.502625 
	C170.424973,368.533020 168.621017,371.086884 164.856735,371.991089 
z"/>
<path fill="#000000" opacity="1.000000" stroke="none" 
	d="
M372.187134,362.750000 
	C375.134125,368.710876 373.977997,370.829681 367.190613,372.429077 
	C367.190613,368.684723 367.190613,364.981598 367.190613,360.586548 
	C369.027344,361.317566 370.467072,361.890594 372.187134,362.750000 
z"/>
</svg>